<?xml version="1.0" encoding="UTF-8" standalone="no"?>
<!-- Created with Inkscape (http://www.inkscape.org/) -->

<svg
   width="100.96514mm"
   height="102.38657mm"
   viewBox="0 0 100.96514 102.38657"
   version="1.1"
   id="svg5"
   xml:space="preserve"
   inkscape:export-filename="LookAtTool.svg"
   inkscape:export-xdpi="60.476189"
   inkscape:export-ydpi="60.476189"
   xmlns:inkscape="http://www.inkscape.org/namespaces/inkscape"
   xmlns:sodipodi="http://sodipodi.sourceforge.net/DTD/sodipodi-0.dtd"
   xmlns="http://www.w3.org/2000/svg"
   xmlns:svg="http://www.w3.org/2000/svg"><sodipodi:namedview
     id="namedview7"
     pagecolor="#ffffff"
     bordercolor="#000000"
     borderopacity="0.25"
     inkscape:showpageshadow="2"
     inkscape:pageopacity="0.0"
     inkscape:pagecheckerboard="0"
     inkscape:deskcolor="#d1d1d1"
     inkscape:document-units="mm"
     showgrid="false" /><defs
     id="defs2" /><g
     inkscape:label="Layer 1"
     inkscape:groupmode="layer"
     id="layer1"
     transform="translate(-39.992471,-89.55689)"><ellipse
       style="fill:#ff9800;fill-opacity:1;stroke:#000000;stroke-width:6.791;stroke-dasharray:none"
       id="path2363"
       cx="103.38869"
       cy="153.79066"
       rx="34.173424"
       ry="34.757282" /><g
       id="g8388"
       transform="matrix(0.68414885,0.38570501,-0.50301079,0.89222138,73.896613,67.829369)"
       style="fill:#ff9800;fill-opacity:1;stroke:#000000;stroke-width:4.67946;stroke-dasharray:none;stroke-opacity:1"><path
         d="M 62.117,78.536 H 14.734 A 7.234,7.234 0 0 1 7.5,71.302 V 45.205 a 7.234,7.234 0 0 1 7.234,-7.234 h 47.383 a 7.234,7.234 0 0 1 7.234,7.234 v 26.097 a 7.234,7.234 0 0 1 -7.234,7.234 z"
         fill="#333333"
         id="path8372"
         style="fill:#ff9800;fill-opacity:1;stroke:#000000;stroke-width:4.67946;stroke-dasharray:none;stroke-opacity:1" /><path
         d="m 69.351,67.57 18.983,8.992 C 90.269,77.479 92.5,76.067 92.5,73.926 V 42.58 c 0,-2.141 -2.23,-3.553 -4.166,-2.636 l -18.983,8.992 z"
         fill="#333333"
         id="path8374"
         style="fill:#ff9800;fill-opacity:1;stroke:#000000;stroke-width:4.67946;stroke-dasharray:none;stroke-opacity:1" /><path
         d="M 42.768,25.336 41.267,22.839 A 2.838,2.838 0 0 0 38.836,21.464 H 14.433 v 7.482 h 20.17 c 0.996,0 1.918,0.522 2.431,1.375 l 9.611,15.988 A 2.372,2.372 0 0 0 49.9,47.12 l 2.347,-1.411 a 2.372,2.372 0 0 0 0.811,-3.255 z"
         fill="#333333"
         id="path8376"
         style="fill:#ff9800;fill-opacity:1;stroke:#000000;stroke-width:4.67946;stroke-dasharray:none;stroke-opacity:1" /></g><ellipse
       style="fill:#000000;fill-opacity:1;stroke:#000000;stroke-width:4.63022;stroke-dasharray:none;stroke-opacity:1"
       id="path10169"
       cx="65.837166"
       cy="125.84479"
       rx="7.1857948"
       ry="7.2038755" /><path
       style="fill:#ff9800;fill-opacity:1;stroke:#000000;stroke-width:4.19701;stroke-dasharray:none;stroke-opacity:1"
       id="path10959"
       d="m 98.028918,168.84314 c 0.193749,-0.43793 0.392623,-0.87257 0.620492,-1.29402 0.314881,-0.57262 0.608738,-1.15561 0.916798,-1.73179 0.290118,-0.51613 0.592482,-1.02546 0.878412,-1.5439 0.23752,-0.5392 0.52828,-1.05117 0.81707,-1.56379 0.19936,-0.37752 0.44313,-0.72896 0.65671,-1.09794 0.20733,-0.41847 0.4156,-0.8377 0.6518,-1.2408 0.0827,-0.15879 0.19774,-0.29838 0.2836,-0.45518 0.0656,-0.11985 0.11946,-0.24581 0.18159,-0.3675 0.20752,-0.40646 0.42456,-0.80788 0.63135,-1.21477 0.39139,-0.76136 0.79914,-1.51402 1.19594,-2.27256 0.37265,-0.71881 0.72885,-1.44618 1.11839,-2.15606 0.41746,-0.75972 0.84232,-1.51431 1.22557,-2.29203 0.35678,-0.72239 0.7886,-1.40242 1.19058,-2.09928 0.34636,-0.5728 0.62767,-1.18001 0.90575,-1.78773 0.22982,-0.49116 0.50074,-0.96044 0.76712,-1.43211 0.24772,-0.40828 0.50078,-0.81335 0.75747,-1.21601 0.28743,-0.46349 0.60811,-0.90494 0.91877,-1.3529 0.31816,-0.4557 0.65706,-0.89351 1.01667,-1.31698 0.17201,-0.21307 0.36451,-0.40721 0.49933,-0.64716 0.12636,-0.21131 0.26681,-0.41277 0.39094,-0.62574 0.10854,-0.206 0.25453,-0.38805 0.37287,-0.58758 0,0 -3.42488,-1.96983 -3.42488,-1.96983 v 0 c -0.10366,0.2044 -0.23792,0.39233 -0.34597,0.59452 -0.12369,0.21407 -0.28552,0.40205 -0.40784,0.61722 -0.12926,0.21695 -0.27585,0.42227 -0.41514,0.63286 -0.32652,0.45408 -0.66299,0.90075 -0.99019,1.35437 -0.32267,0.44784 -0.65484,0.88908 -0.95821,1.35049 -0.26181,0.40819 -0.51291,0.82273 -0.75647,1.24209 -0.27008,0.48329 -0.53932,0.96732 -0.76396,1.47405 -0.26376,0.60175 -0.52392,1.20672 -0.85245,1.7769 -0.39399,0.70994 -0.81894,1.40314 -1.1787,2.13189 -0.37734,0.77391 -0.79499,1.52583 -1.21698,2.27622 -0.39394,0.71229 -0.78485,1.42517 -1.13027,2.16274 -0.38253,0.76647 -0.80377,1.51315 -1.17792,2.28404 -0.10815,0.21332 -0.29534,0.58848 -0.413174,0.79706 -0.229553,0.40632 -0.520631,0.76812 -0.765347,1.16467 -0.241895,0.40397 -0.456351,0.82323 -0.689965,1.23198 -0.199313,0.37905 -0.44093,0.73475 -0.627216,1.12091 -0.266324,0.52319 -0.527875,1.04897 -0.800912,1.56854 -0.284964,0.52135 -0.5799,1.03723 -0.859173,1.56174 -0.302001,0.57664 -0.612312,1.14892 -0.914848,1.7253 -0.232738,0.41386 -0.471588,0.82658 -0.732734,1.22273 0,0 3.425127,1.97534 3.425127,1.97534 z" /><path
       style="fill:#ff9800;fill-opacity:1;stroke:#000000;stroke-width:4.19701;stroke-dasharray:none;stroke-opacity:1"
       id="path10961"
       d="m 95.14838,161.75799 c 0.289327,-0.5517 0.643488,-1.06495 1.014913,-1.56378 0.268216,-0.38181 0.584269,-0.7294 0.847664,-1.11469 0.108725,-0.15905 0.202782,-0.32771 0.309486,-0.48812 0.140634,-0.21141 0.54103,-0.77141 0.688771,-0.97928 0.506688,-0.70704 1.000559,-1.42209 1.444207,-2.17052 0.242221,-0.37879 0.421822,-0.79 0.626099,-1.18888 0.19533,-0.38279 0.40061,-0.7603 0.60154,-1.1402 0.18735,-0.31431 0.3657,-0.63341 0.54539,-0.952 0.20446,-0.36059 0.39379,-0.72925 0.58082,-1.0992 0.21482,-0.43441 0.42204,-0.87258 0.63698,-1.30696 0.25376,-0.63041 0.5379,-1.24654 0.89195,-1.82723 0.26269,-0.43153 0.56308,-0.83643 0.86994,-1.23689 0.19305,-0.24801 0.34558,-0.52144 0.4887,-0.80022 0.14765,-0.23953 0.22273,-0.51314 0.32641,-0.77244 0.0498,-0.12459 0.14072,-0.32766 0.19578,-0.45234 0.16582,-0.33175 0.29046,-0.68136 0.42417,-1.02659 0.1186,-0.32702 0.23162,-0.65613 0.36885,-0.97593 0.10453,-0.24999 0.21185,-0.49768 0.34006,-0.73654 0.13861,-0.21654 0.27588,-0.43512 0.42361,-0.64555 0.076,-0.11898 0.0403,-0.0583 0.10714,-0.18196 0,0 -3.43311,-1.95437 -3.43311,-1.95437 v 0 c -0.0436,0.0982 -0.0187,0.0473 -0.0761,0.15185 -0.13634,0.2327 -0.28126,0.45755 -0.44058,0.67563 -0.12866,0.25314 -0.22798,0.51713 -0.31892,0.78584 -0.13416,0.32609 -0.28909,0.6441 -0.3881,0.98337 -0.12436,0.34611 -0.24888,0.69217 -0.38507,1.03389 -0.15277,0.40248 -0.32372,0.79808 -0.543,1.16945 -0.14212,0.26029 -0.28019,0.52303 -0.45134,0.76591 -0.27614,0.43257 -0.55602,0.86297 -0.80177,1.31397 -0.24093,0.4332 -0.473113,0.87092 -0.70344,1.30975 -0.0504,0.096 -0.106958,0.18885 -0.154514,0.28631 -0.03578,0.0733 -0.06347,0.15031 -0.0952,0.22546 -0.21517,0.43255 -0.435168,0.86265 -0.65229,1.2942 -0.185785,0.36468 -0.383167,0.7238 -0.59508,1.07388 -0.177787,0.32364 -0.355357,0.64752 -0.538324,0.96821 -0.196434,0.38186 -0.388723,0.76592 -0.591174,1.14463 -0.0027,0.005 -0.208254,0.38585 -0.211749,0.39307 -0.129857,0.26831 -0.226729,0.55329 -0.371837,0.81481 -0.376349,0.76644 -0.801691,1.50641 -1.284743,2.21127 -0.142976,0.20279 -0.543565,0.77554 -0.694595,0.97146 -0.118604,0.15387 -0.250957,0.2968 -0.369599,0.45064 -0.282887,0.36682 -0.533638,0.75989 -0.843529,1.10639 -0.393324,0.4961 -0.78823,0.99102 -1.193249,1.47699 0,0 3.404806,2.00671 3.404806,2.00671 z" /><path
       style="fill:#ff9800;fill-opacity:1;stroke:#000000;stroke-width:4.19701;stroke-dasharray:none;stroke-opacity:1"
       id="path10963"
       d="m 92.489429,156.60237 c 0.183766,-0.38025 0.396184,-0.74758 0.610671,-1.11141 0.235167,-0.37053 0.420199,-0.76812 0.652624,-1.14022 0.198187,-0.31727 0.285163,-0.43584 0.498896,-0.74596 0.490411,-0.65953 0.969103,-1.32588 1.434968,-2.00309 0.322299,-0.4555 0.6433,-0.91169 0.934331,-1.3879 0.256513,-0.44303 0.526714,-0.87776 0.779854,-1.32278 0.205041,-0.36404 0.393861,-0.73681 0.583001,-1.10925 0.277895,-0.51448 0.509993,-1.05105 0.775931,-1.57137 0.380301,-0.64715 0.77607,-1.28502 1.158965,-1.93074 0.18192,-0.28631 0.341,-0.58674 0.49496,-0.88884 0.0999,-0.18764 0.18889,-0.38076 0.28425,-0.57069 0.0543,-0.093 0.10694,-0.18687 0.15828,-0.28154 0,0 -3.427868,-1.95377 -3.427868,-1.95377 v 0 c -0.04523,0.0975 -0.09423,0.19287 -0.151561,0.28401 -0.09979,0.1934 -0.20047,0.38608 -0.287536,0.58564 -0.127532,0.307 -0.265057,0.61037 -0.416372,0.90641 -0.32788,0.67229 -0.64643,1.35028 -1.057627,1.97756 -0.08337,0.13032 -0.166733,0.26064 -0.2501,0.39096 -0.0769,0.10653 -0.159459,0.20919 -0.230709,0.31957 -0.163544,0.25337 -0.256082,0.5499 -0.421283,0.80289 -0.201117,0.36411 -0.375451,0.74214 -0.57133,1.10911 -0.238131,0.44828 -0.485267,0.89238 -0.769446,1.31354 -0.27619,0.47691 -0.576127,0.93988 -0.864187,1.40965 -0.431792,0.6935 -0.926491,1.3434 -1.386755,2.01802 -0.432311,0.60864 -0.879274,1.20776 -1.255525,1.85366 -0.2242,0.35768 -0.43743,0.72635 -0.699733,1.05737 0,0 3.423301,1.98917 3.423301,1.98917 z" /></g></svg>
