<?xml version="1.0" encoding="UTF-8" standalone="no"?>
<svg
   xmlns:dc="http://purl.org/dc/elements/1.1/"
   xmlns:cc="http://creativecommons.org/ns#"
   xmlns:rdf="http://www.w3.org/1999/02/22-rdf-syntax-ns#"
   xmlns:svg="http://www.w3.org/2000/svg"
   xmlns="http://www.w3.org/2000/svg"
   xmlns:sodipodi="http://sodipodi.sourceforge.net/DTD/sodipodi-0.dtd"
   xmlns:inkscape="http://www.inkscape.org/namespaces/inkscape"
   height="512px"
   style="enable-background:new 0 0 512 512;"
   version="1.1"
   viewBox="0 0 512 512"
   width="512px"
   xml:space="preserve"
   id="svg8"
   sodipodi:docname="WaypointTool.svg"
   inkscape:version="1.0.2 (1.0.2+r75+1)"><metadata
     id="metadata14"><rdf:RDF><cc:Work
         rdf:about=""><dc:format>image/svg+xml</dc:format><dc:type
           rdf:resource="http://purl.org/dc/dcmitype/StillImage" /></cc:Work></rdf:RDF></metadata><defs
     id="defs12" /><sodipodi:namedview
     pagecolor="#ffffff"
     bordercolor="#666666"
     borderopacity="1"
     objecttolerance="10"
     gridtolerance="10"
     guidetolerance="10"
     inkscape:pageopacity="0"
     inkscape:pageshadow="2"
     inkscape:window-width="1838"
     inkscape:window-height="1045"
     id="namedview10"
     showgrid="false"
     inkscape:zoom="1.1855469"
     inkscape:cx="0.82236926"
     inkscape:cy="266.01328"
     inkscape:window-x="60"
     inkscape:window-y="27"
     inkscape:window-maximized="0"
     inkscape:current-layer="g4" /><g
     id="_x31_08_x2C__Map_x2C__Camping_x2C__plan_x2C__track_x2C__location"
     transform="matrix(1.1129902,0,0,1.1129902,-28.931056,-28.911022)"><g
       id="g4"><path
         d="M 446.057,157.439 324.433,117.378 v 329.635 l 121.624,38.985 z m -261.085,93.414 -1.476,-2.075 -0.36,-0.519 v 0 l -0.358,-0.479 -0.36,-0.518 h -0.041 l -0.358,-0.52 -0.359,-0.479 -0.36,-0.52 v 0 l -0.398,-0.519 v 0 l -0.36,-0.519 v 0 l -0.398,-0.518 v 0 l -0.36,-0.479 -0.398,-0.519 v 0 l -0.4,-0.519 v 0 l -0.358,-0.52 -0.4,-0.519 v 0 l -0.398,-0.479 v -0.04 l -0.398,-0.479 v 0 l -0.4,-0.518 v 0 l -0.398,-0.52 v 0 l -0.4,-0.52 v 0 l -0.398,-0.518 v 0 l -0.398,-0.52 v 0 l -0.4,-0.518 v 0 l -0.398,-0.52 v 0 l -0.4,-0.519 v 0 l -0.438,-0.519 v 0 l -0.398,-0.519 v 0 l -0.4,-0.519 v 0 l -0.398,-0.52 h -0.041 l -0.398,-0.519 v 0 l -0.398,-0.519 v 0 l -0.44,-0.519 v 0 l -0.398,-0.519 v 0 l -0.439,-0.52 v 0 l -0.4,-0.518 h -0.039 l -0.4,-0.52 v 0 l -0.438,-0.52 v 0 l -0.398,-0.518 -0.04,-0.04 -0.398,-0.52 v 0 l -0.439,-0.519 v 0 l -0.44,-0.519 v 0 l -0.398,-0.519 v 0 l -0.439,-0.518 v 0 l -0.438,-0.52 v 0 l -0.439,-0.559 v 0 l -0.44,-0.52 v 0 l -0.438,-0.519 v 0 l -0.439,-0.519 v 0 l -0.438,-0.519 v -0.04 l -0.438,-0.519 v 0 l -0.439,-0.519 v 0 l -0.438,-0.52 v 0 l -0.44,-0.519 v -0.04 l -0.439,-0.518 v 0 l -0.438,-0.52 v 0 l -0.439,-0.519 v 0 l -0.438,-0.56 v 0 l -0.439,-0.518 v 0 l -0.438,-0.52 v 0 l -0.438,-0.559 v 0 l -0.44,-0.518 v 0 l -0.478,-0.52 v -0.04 l -0.44,-0.519 v 0 l -0.438,-0.519 v 0 l -0.439,-0.519 v -0.04 l -1.077,-1.237 -0.239,-0.319 -0.798,-0.957 -1.037,-1.237 -0.839,-0.998 -0.239,-0.278 -1.039,-1.278 -0.039,-0.039 -1.039,-1.236 -0.279,-0.359 -0.758,-0.918 -0.598,-0.679 -0.479,-0.599 -0.837,-0.998 -0.2,-0.278 -1.078,-1.276 -0.04,-0.08 -0.997,-1.197 -0.319,-0.399 -0.717,-0.878 -0.6,-0.758 -0.478,-0.559 -0.839,-1.078 -0.2,-0.199 -1.037,-1.316 -0.079,-0.08 -0.958,-1.196 -0.36,-0.44 -0.677,-0.877 -0.599,-0.758 -0.4,-0.52 -0.877,-1.117 -0.16,-0.199 -1.037,-1.316 -0.081,-0.12 -0.918,-1.196 -0.358,-0.479 -0.639,-0.798 -0.639,-0.838 -0.36,-0.479 -0.877,-1.197 -0.119,-0.12 -0.999,-1.317 -0.119,-0.199 -0.839,-1.156 -0.398,-0.52 -0.598,-0.798 -0.958,-1.317 -0.837,-1.236 -0.121,-0.119 c -11.092,-15.563 -20.35,-31.764 -25.139,-48.723 l -36.071,-11.77 v 328.478 l 119.028,38.944 V 250.853 Z m 87.827,-120.148 c -9.058,30.366 -32.361,58.258 -54.467,84.714 -8.181,9.815 -16.2,19.393 -23.143,28.729 V 394.98 c 0.877,-0.838 2.193,-1.396 3.471,-1.396 h 9.776 c 3.551,0 6.066,3.791 4.431,7.063 -0.639,1.517 -2.555,2.754 -4.431,2.754 h -9.776 c -1.397,0 -2.594,-0.56 -3.471,-1.478 v 83.078 l 119.03,-38.945 V 117.139 Z m -143.091,32.761 0.041,0.119 0.877,1.317 0.119,0.199 0.758,1.117 0.319,0.479 0.599,0.878 0.52,0.718 0.398,0.599 0.679,0.998 0.239,0.318 0.917,1.277 v 0.04 l 0.958,1.315 0.16,0.24 0.758,1.077 0.398,0.519 0.56,0.799 0.599,0.798 0.398,0.519 0.758,1.078 0.2,0.239 0.997,1.317 v 0.039 l 0.999,1.276 0.2,0.28 0.796,0.997 0.44,0.599 0.558,0.719 0.639,0.838 0.358,0.438 0.879,1.116 0.16,0.201 0.997,1.275 0.081,0.12 0.957,1.197 0.281,0.358 0.758,0.918 0.479,0.639 0.558,0.639 0.718,0.918 0.319,0.398 0.918,1.157 0.119,0.12 1.039,1.277 0.12,0.159 0.917,1.116 0.358,0.44 0.679,0.838 0.558,0.679 0.52,0.598 0.758,0.958 1.277,1.517 0.039,0.08 1.077,1.236 0.16,0.24 0.879,1.037 0.398,0.479 0.679,0.797 0.599,0.719 0.438,0.52 0.837,0.997 0.241,0.28 1.037,1.236 v 0.039 l 0.36,0.439 v 0 l 0.398,0.438 0.718,0.918 h 0.04 l 0.36,0.439 v 0 l 1.436,1.716 0.04,0.079 h 0.041 l 0.041,0.08 1.037,1.237 0.04,0.04 0.358,0.398 v 0.04 l 0.36,0.439 0.041,0.04 0.319,0.398 0.039,0.04 0.319,0.399 0.041,0.04 0.359,0.398 0.039,0.039 0.679,0.84 0.041,0.079 0.718,0.838 0.04,0.04 0.678,0.838 0.04,0.04 0.319,0.398 0.041,0.079 0.319,0.36 0.079,0.079 0.279,0.359 0.081,0.08 0.319,0.359 0.041,0.079 0.318,0.36 0.04,0.078 0.319,0.399 0.041,0.08 0.319,0.359 0.039,0.079 0.319,0.359 0.081,0.08 0.639,0.798 0.079,0.079 0.279,0.36 0.081,0.08 0.279,0.358 0.081,0.08 0.279,0.359 0.079,0.079 0.36,0.479 0.279,0.319 0.079,0.119 0.281,0.319 0.079,0.119 0.241,0.319 0.119,0.12 0.239,0.32 0.119,0.119 0.241,0.318 0.079,0.119 0.281,0.32 0.079,0.12 0.279,0.318 0.081,0.12 0.279,0.319 0.079,0.159 0.24,0.279 0.12,0.16 0.238,0.279 0.081,0.159 0.279,0.278 0.081,0.16 0.239,0.28 0.119,0.159 0.241,0.279 0.119,0.16 0.2,0.279 0.119,0.159 0.358,0.438 0.241,0.279 0.119,0.16 0.2,0.279 0.119,0.16 0.239,0.278 0.121,0.159 0.198,0.28 0.121,0.159 0.239,0.279 0.119,0.16 0.2,0.279 0.119,0.159 0.2,0.279 0.119,0.159 0.24,0.28 0.12,0.159 0.198,0.279 0.121,0.16 0.198,0.279 0.16,0.159 0.2,0.28 0.119,0.159 0.2,0.278 c 6.982,-9.336 14.843,-18.714 22.864,-28.33 27.053,-32.361 55.983,-66.997 55.983,-104.026 0,-21.787 -8.819,-41.498 -23.064,-55.784 -14.285,-14.244 -33.997,-23.063 -55.783,-23.063 -21.787,0 -41.498,8.818 -55.784,23.063 -14.285,14.286 -23.105,33.997 -23.105,55.784 -0.007,20.256 8.653,39.808 20.943,58.643 z m 80.843,-80.525 c -5.866,-5.865 -13.966,-9.457 -22.905,-9.457 -8.939,0 -17.079,3.592 -22.905,9.457 -5.864,5.867 -9.497,13.967 -9.497,22.904 0,8.979 3.632,17.079 9.497,22.905 5.826,5.865 13.966,9.497 22.905,9.497 8.938,0 17.039,-3.632 22.905,-9.458 5.864,-5.865 9.456,-13.966 9.456,-22.944 0,-8.937 -3.63,-17.036 -9.456,-22.904 z m -111.29,184.51 c 0,1.876 1.199,3.791 2.753,4.43 3.272,1.636 7.063,-0.878 7.063,-4.43 v -9.775 c 0,-1.876 -1.237,-3.791 -2.792,-4.43 -3.232,-1.636 -7.024,0.878 -7.024,4.43 z m 0,39.225 c 0,1.836 1.199,3.791 2.753,4.389 3.272,1.637 7.063,-0.838 7.063,-4.389 v -9.815 c 0,-1.835 -1.237,-3.751 -2.792,-4.39 -3.232,-1.637 -7.024,0.838 -7.024,4.39 z m 0,39.224 c 0,1.836 1.199,3.791 2.753,4.389 3.272,1.637 7.063,-0.838 7.063,-4.389 v -9.816 c 0,-1.836 -1.237,-3.79 -2.792,-4.389 -3.232,-1.637 -7.024,0.838 -7.024,4.389 z m 0,39.224 c 0,1.837 1.199,3.791 2.753,4.39 3.272,1.637 7.063,-0.838 7.063,-4.39 v -9.815 c 0,-1.836 -1.237,-3.791 -2.792,-4.389 -3.232,-1.637 -7.024,0.838 -7.024,4.389 z m 30.766,18.276 c 1.835,0 3.79,-1.237 4.389,-2.754 1.635,-3.271 -0.837,-7.063 -4.389,-7.063 h -9.816 c -1.835,0 -3.792,1.197 -4.391,2.753 -1.635,3.272 0.839,7.063 4.391,7.063 h 9.816 z m 39.224,0 c 1.835,0 3.75,-1.237 4.389,-2.754 1.637,-3.271 -0.877,-7.063 -4.389,-7.063 h -9.816 c -1.875,0 -3.79,1.197 -4.429,2.753 -1.636,3.272 0.877,7.063 4.429,7.063 h 9.816 z m 78.41,0 c 1.874,0 3.79,-1.237 4.429,-2.754 1.636,-3.271 -0.879,-7.063 -4.429,-7.063 h -9.777 c -1.875,0 -3.791,1.197 -4.429,2.753 -1.635,3.272 0.877,7.063 4.429,7.063 h 9.777 z m 22.304,-26.775 c 0,-1.836 -1.237,-3.79 -2.753,-4.389 -3.272,-1.637 -7.063,0.838 -7.063,4.389 v 9.816 c 0,1.875 1.197,3.791 2.754,4.43 3.272,1.596 7.063,-0.879 7.063,-4.43 v -9.816 z m 0,-39.185 c 0,-1.875 -1.237,-3.79 -2.753,-4.429 -3.272,-1.636 -7.063,0.878 -7.063,4.429 v 9.776 c 0,1.875 1.197,3.791 2.754,4.43 3.272,1.636 7.063,-0.878 7.063,-4.43 v -9.776 z m 0,-39.223 c 0,-1.875 -1.237,-3.791 -2.753,-4.43 -3.272,-1.636 -7.063,0.878 -7.063,4.43 v 9.776 c 0,1.875 1.197,3.79 2.754,4.429 3.272,1.636 7.063,-0.878 7.063,-4.429 v -9.776 z m 0,-39.225 c 0,-1.875 -1.237,-3.791 -2.753,-4.43 -3.272,-1.635 -7.063,0.879 -7.063,4.43 v 9.816 c 0,1.836 1.197,3.751 2.754,4.389 3.272,1.637 7.063,-0.838 7.063,-4.389 v -9.816 z m 30.805,1.397 c 1.836,0 3.79,-1.236 4.391,-2.754 1.636,-3.271 -0.839,-7.062 -4.391,-7.062 h -9.816 c -1.875,0 -3.79,1.196 -4.429,2.753 -1.595,3.271 0.878,7.063 4.429,7.063 z m 39.185,0 c 1.874,0 3.791,-1.236 4.43,-2.754 1.635,-3.271 -0.88,-7.062 -4.43,-7.062 h -9.777 c -1.874,0 -3.79,1.196 -4.43,2.753 -1.635,3.271 0.88,7.063 4.43,7.063 z m 39.225,0 c 1.875,0 3.789,-1.236 4.428,-2.754 1.637,-3.271 -0.877,-7.062 -4.428,-7.062 h -9.816 c -1.836,0 -3.752,1.196 -4.391,2.753 -1.635,3.271 0.839,7.063 4.391,7.063 z m 20.149,9.257 c 0,1.836 1.198,3.791 2.753,4.389 3.272,1.637 7.063,-0.838 7.063,-4.389 v -9.816 c 0,-1.835 -1.196,-3.791 -2.753,-4.389 -3.271,-1.637 -7.063,0.838 -7.063,4.389 z m 0,39.225 c 0,1.835 1.198,3.791 2.753,4.389 3.272,1.637 7.063,-0.838 7.063,-4.389 v -9.816 c 0,-1.836 -1.196,-3.791 -2.753,-4.39 -3.271,-1.636 -7.063,0.838 -7.063,4.39 z m -290.251,-90.42 c 0,-1.875 -1.237,-3.791 -2.792,-4.43 -3.232,-1.635 -7.024,0.879 -7.024,4.43 v 9.776 c 0,1.876 1.199,3.791 2.753,4.429 3.272,1.637 7.063,-0.877 7.063,-4.429 z m 78.568,-155.18 c 11.73,0 22.385,4.749 30.087,12.489 7.74,7.662 12.488,18.315 12.488,30.086 0,11.731 -4.748,22.386 -12.45,30.088 -7.74,7.74 -18.395,12.528 -30.125,12.528 -11.732,0 -22.385,-4.788 -30.087,-12.489 -7.74,-7.741 -12.529,-18.396 -12.529,-30.127 0,-11.73 4.789,-22.385 12.489,-30.086 7.742,-7.74 18.395,-12.489 30.127,-12.489 z"
         style="clip-rule:evenodd;fill-rule:evenodd;fill:#ff9800;fill-opacity:1;stroke:#000000;stroke-opacity:1;stroke-width:7.18784406;stroke-miterlimit:4;stroke-dasharray:none"
         id="path2" /><path
         style="fill:#000000;fill-opacity:1;stroke:#000000;stroke-width:9.54303;stroke-opacity:1"
         d="m 175.46159,228.88043 c -2.44464,-3.17697 -11.90912,-14.76764 -21.03216,-25.75704 -18.77454,-22.61533 -25.89511,-31.64834 -33.36109,-42.3212 -20.05398,-28.66784 -28.476319,-50.40287 -28.455109,-73.432491 0.0093,-10.094557 1.207286,-17.666313 4.250098,-26.862274 9.900181,-29.920232 34.158721,-51.5666702 65.610201,-58.54546 8.37777,-1.85894735 26.37592,-1.8387887 35.00408,0.039206 8.20875,1.786706 15.3655,4.3652469 22.73256,8.190425 23.72414,12.318213 40.45296,34.655692 45.53169,60.797075 5.1882,26.704796 -1.97881,52.515509 -23.52405,84.717799 -8.62464,12.89067 -17.4225,24.15074 -41.17872,52.70314 -6.1037,7.33598 -13.35552,16.24267 -16.11516,19.79265 l -5.01754,6.4545 z m 19.35642,-94.76854 c 20.9989,-7.31687 33.8255,-26.47129 32.48297,-48.507938 C 226.639,74.737967 222.32381,64.807735 214.67307,56.544225 205.48189,46.616909 193.6022,41.5017 179.71657,41.492514 c -21.57298,-0.01427 -40.31344,14.47652 -45.93498,35.518566 -1.62174,6.070345 -1.78257,16.591207 -0.34358,22.475588 2.77136,11.332742 10.09063,22.221902 19.10593,28.424582 4.04281,2.78153 10.76618,5.83299 15.89399,7.21363 3.7203,1.00167 5.87887,1.17047 12.82344,1.00279 7.46625,-0.18028 8.90129,-0.39366 13.55664,-2.01578 z"
         id="path979"
         transform="matrix(0.89848051,0,0,0.89848051,25.99399,25.97599)" /></g></g><g
     id="Layer_1" /></svg>
